<svg xmlns="http://www.w3.org/2000/svg" width="1200" height="800" viewBox="0 0 1200 800" role="img" aria-label="Textura abstracta de hojas">
  <rect width="1200" height="800" fill="#1f3a2c"/>
  <path d="M0 600c170-95 280-142 438-110 154 31 245-16 360-120 118-107 247-120 402-74v504H0Z" fill="#315c43"/>
  <path d="M0 210c126 40 232 28 338-36 138-83 278-92 420-26 151 70 283 78 442 19v633H0Z" fill="#244c38" opacity=".85"/>
  <path d="M112 104c48 62 67 124 58 185-66-42-103-101-112-178 18-6 36-8 54-7Z" fill="#79b88c" opacity=".32"/>
  <path d="M930 90c-73 50-115 113-127 189 83-25 140-79 169-163-13-12-27-21-42-26Z" fill="#9bd0a7" opacity=".28"/>
  <path d="M704 514c62 58 96 124 101 198-82-31-139-85-171-164 20-16 43-27 70-34Z" fill="#9bd0a7" opacity=".22"/>
</svg>
